<svg width="1024" height="1024" viewBox="0 0 1024 1024" fill="none" xmlns="http://www.w3.org/2000/svg">
  <path d="M739 356C677 279 586 242 513 242C369 242 259 347 259 484C259 510 263 530 272 546C281 562 294 571 315 571C352 571 438 538 554 494C628 466 693 446 747 433C820 416 848 391 840 369C832 346 799 339 739 356Z" fill="white"/>
  <path d="M285 669C347 746 438 786 513 786C659 786 780 652 782 517C782 501 779 494 774 490C752 473 675 490 560 534C446 579 350 615 272 634C205 651 170 670 177 691C186 714 225 708 285 669Z" fill="white"/>
  <path d="M289 545C179 601 93 656 52 706C27 737 40 764 84 771C136 778 233 754 364 714L315 656C232 682 177 694 144 694C173 667 224 632 290 592C309 581 316 565 309 552C304 543 296 541 289 545Z" fill="white"/>
  <path d="M735 356C808 338 869 332 904 339C860 366 821 392 782 420C772 427 767 437 767 448C767 460 772 471 782 479C792 487 803 489 814 484C900 432 965 387 992 348C1012 319 998 293 960 290C910 286 836 308 711 356H735Z" fill="white"/>
</svg>
